<svg width="25" height="16" viewBox="0 0 25 16" fill="none" xmlns="http://www.w3.org/2000/svg">
<path d="M1 7C0.447715 7 0 7.44772 0 8C0 8.55228 0.447715 9 1 9V7ZM24.6043 8.70711C24.9948 8.31658 24.9948 7.68342 24.6043 7.29289L18.2403 0.928932C17.8498 0.538408 17.2167 0.538408 16.8261 0.928932C16.4356 1.31946 16.4356 1.95262 16.8261 2.34315L22.483 8L16.8261 13.6569C16.4356 14.0474 16.4356 14.6805 16.8261 15.0711C17.2167 15.4616 17.8498 15.4616 18.2403 15.0711L24.6043 8.70711ZM1 9H23.8972V7H1V9Z" fill="white"/>
</svg>
