<svg width="77" height="96" viewBox="0 0 77 96" fill="none" xmlns="http://www.w3.org/2000/svg">
<g filter="url(#filter0_d)">
<path d="M24.2099 36.0108V32.9529C24.2099 24.4232 29.998 14.4927 37.4693 14.4927H39.4318C46.8844 14.4927 52.6912 24.4044 52.6912 32.9341V35.992H60.6717V28.4879C60.5856 22.6138 58.4535 16.9568 54.6475 12.5041C50.5362 7.65146 45.1827 5 39.5808 5H37.314C31.7246 5 26.3649 7.67022 22.2473 12.5041C18.4409 16.9565 16.3088 22.6137 16.2231 28.4879V35.992H24.2099V36.0108Z" fill="#F68F33"/>
<g style="mix-blend-mode:multiply" opacity="0.5">
<path d="M54.6529 12.5104C54.301 12.0935 53.9408 11.6974 53.5723 11.3222C53.7756 11.7769 53.8995 12.2634 53.9387 12.7605C53.9729 13.4244 53.8539 14.0872 53.591 14.6969C53.3281 15.3067 52.9284 15.8468 52.4233 16.2749C51.9745 16.6201 51.4384 16.8312 50.8762 16.8843C50.314 16.9374 49.7482 16.8302 49.2435 16.5751C48.5038 16.2154 47.7936 15.7972 47.1196 15.3244C46.3213 14.8263 45.4768 14.4074 44.5981 14.0737C42.8756 13.4128 41.0506 13.0635 39.2074 13.0419C35.8474 12.9523 32.5453 13.9351 29.7736 15.8497C27.3011 17.712 25.327 20.1639 24.0289 22.9849C23.1222 24.9297 22.7868 27.2059 21.3273 28.8756C21.0615 29.2446 20.7005 29.5334 20.2835 29.7109C19.8665 29.8883 19.4092 29.9476 18.9611 29.8824C18.4693 29.7804 18.0111 29.555 17.6289 29.227C17.2467 28.899 16.953 28.4792 16.775 28.0064C16.5428 27.4056 16.4005 26.7733 16.3527 26.1304C16.2704 26.9051 16.2289 27.6837 16.2285 28.4629V35.967H24.209V32.9529C24.209 24.4232 29.9972 14.4927 37.4684 14.4927H39.431C46.8836 14.4927 52.6904 24.4044 52.6904 32.9341V35.992H60.6709V28.4879C60.585 22.6168 58.4552 16.9623 54.6529 12.5104Z" fill="#F68F33"/>
</g>
<g style="mix-blend-mode:multiply" opacity="0.5">
<path d="M60.6778 33.3156H52.6973V36.0114H60.6778V33.3156Z" fill="#F68F33"/>
</g>
<g style="mix-blend-mode:multiply" opacity="0.5">
<path d="M24.2032 33.3156H16.2227V36.0114H24.2032V33.3156Z" fill="#F68F33"/>
</g>
<path d="M66.8199 36.955C66.6385 36.4872 66.3413 36.0739 65.9566 35.7543C65.4028 35.3591 64.7647 35.1 64.0935 34.9977H12.6022C11.9154 35.0698 11.2661 35.3487 10.739 35.7981C10.3228 36.1755 10.0596 36.6944 10 37.2552C10 37.3427 10 37.4553 10 37.5616V48.6677C10 91.2411 67 92.3104 67 48.6677V37.5053C66.9541 37.3175 66.8939 37.1335 66.8199 36.955Z" fill="#F68F33"/>
<path d="M65.6388 37.5992C65.4624 37.1649 65.1779 36.7838 64.8128 36.4923C64.2843 36.129 63.6816 35.8897 63.049 35.7919H13.5575C12.9039 35.8592 12.2842 36.1179 11.7751 36.5361C11.3768 36.8754 11.1197 37.3531 11.0547 37.8743C11.0547 37.9556 11.0547 38.0557 11.0547 38.1557V48.4426C11.0547 87.8393 65.8065 88.8336 65.8065 48.4426V38.112C65.7642 37.9368 65.7082 37.7653 65.6388 37.5992Z" fill="#FBB035"/>
<path d="M63.3115 38.2996C63.1402 37.9212 62.8723 37.5954 62.5352 37.3553C62.045 37.0334 61.4925 36.8202 60.9142 36.7299H15.3353C14.7421 36.7825 14.1747 36.9989 13.6958 37.3553C13.3344 37.6348 13.0959 38.0455 13.0312 38.4997C13.0313 38.5685 13.0312 38.656 13.0312 38.7436V47.4984C13.0312 81.0981 63.4667 81.9423 63.4667 47.4984V38.731C63.4274 38.583 63.3755 38.4386 63.3115 38.2996Z" fill="#FFD074"/>
<path d="M45.2014 49.4369C45.2014 45.9037 42.1893 43.0396 38.4816 43.0396C34.774 43.0396 31.7557 45.9037 31.7557 49.4369C31.7765 50.7479 32.1961 52.021 32.9579 53.0844C33.7197 54.1478 34.7871 54.9504 36.0161 55.3839L31.1719 69.9919H45.1952L40.7982 55.4277C42.0597 55.0142 43.1619 54.215 43.9511 53.1412C44.7403 52.0674 45.1774 50.7725 45.2014 49.4369Z" fill="#AD561F"/>
<path d="M33.5874 49.4369C33.6256 47.8508 34.2361 46.333 35.3048 45.1672C36.3735 44.0014 37.8272 43.2673 39.3942 43.1021C39.0915 43.0619 38.7866 43.041 38.4813 43.0396C34.755 43.0396 31.7615 45.9037 31.7615 49.4369C31.7823 50.7479 32.2019 52.021 32.9637 53.0844C33.7256 54.1478 34.7929 54.9504 36.0219 55.3839L31.1777 69.9919H33.0098L37.854 55.3839C36.6239 54.9514 35.5552 54.1493 34.7922 53.0858C34.0292 52.0223 33.6087 50.7487 33.5874 49.4369Z" fill="#AD561F"/>
<path d="M45.1994 49.4369C45.1612 47.8509 44.5507 46.3331 43.482 45.1673C42.4133 44.0015 40.9596 43.2674 39.3926 43.1022C37.8255 43.2674 36.3718 44.0015 35.3031 45.1673C34.2345 46.3331 33.624 47.8509 33.5857 49.4369C33.6065 50.748 34.0261 52.0211 34.788 53.0845C35.5498 54.1479 36.6172 54.9505 37.8461 55.384L33.002 69.992H45.1932L40.7961 55.4277C42.0577 55.0143 43.1598 54.2151 43.9491 53.1413C44.7383 52.0675 45.1754 50.7726 45.1994 49.4369Z" fill="#5E2A00"/>
<g style="mix-blend-mode:screen">
<path d="M17.1967 25.4801C17.1967 25.4801 20.6124 5.11266 41.6598 5.86933C41.6598 5.86933 22.9662 7.25134 17.1967 25.4801Z" fill="#F68F33"/>
</g>
<g style="mix-blend-mode:screen">
<path d="M14.7704 39.1937C14.3939 40.2364 14.4295 41.3848 14.8698 42.4018C15.6399 43.9026 24.1545 41.6826 23.9495 39.644C23.7446 37.6054 16.0498 36.092 14.7704 39.1937Z" fill="#F68F33"/>
</g>
<g style="mix-blend-mode:screen">
<path d="M14.5587 46.4415C14.3713 47.3887 14.3882 48.3655 14.6084 49.3056C14.9872 50.6438 19.2228 48.6802 19.1234 46.848C19.024 45.0157 15.1984 43.6712 14.5587 46.4415Z" fill="#F68F33"/>
</g>
</g>
<defs>
<filter id="filter0_d" x="0" y="0" width="77" height="96" filterUnits="userSpaceOnUse" color-interpolation-filters="sRGB">
<feFlood flood-opacity="0" result="BackgroundImageFix"/>
<feColorMatrix in="SourceAlpha" type="matrix" values="0 0 0 0 0 0 0 0 0 0 0 0 0 0 0 0 0 0 127 0" result="hardAlpha"/>
<feOffset dy="5"/>
<feGaussianBlur stdDeviation="5"/>
<feComposite in2="hardAlpha" operator="out"/>
<feColorMatrix type="matrix" values="0 0 0 0 0 0 0 0 0 0 0 0 0 0 0 0 0 0 0.15 0"/>
<feBlend mode="normal" in2="BackgroundImageFix" result="effect1_dropShadow"/>
<feBlend mode="normal" in="SourceGraphic" in2="effect1_dropShadow" result="shape"/>
</filter>
</defs>
</svg>
